<svg width="41" height="41" viewBox="0 0 41 41" fill="none" xmlns="http://www.w3.org/2000/svg">
<path d="M20.4395 40.4396C31.4851 40.4396 40.4395 31.4853 40.4395 20.4396C40.4395 9.39388 31.4851 0.439575 20.4395 0.439575C9.39376 0.439575 0.439453 9.39388 0.439453 20.4396C0.439453 31.4853 9.39376 40.4396 20.4395 40.4396Z" fill="#77B1F2"/>
<path d="M31.3918 11.1272C31.1402 10.8072 30.6758 10.7441 30.3509 10.9898C27.4269 13.2014 24.6936 15.6694 22.1722 18.3561C20.8291 19.7912 19.5478 21.2907 18.3505 22.8721C17.7145 23.7183 17.1025 24.5876 16.5242 25.4894H16.4878L13.11 18.7312C13.0776 18.6663 13.0402 18.601 13.0002 18.5387C12.3776 17.5752 11.07 17.3205 10.1282 18.0014C9.24513 18.6401 9.08957 19.9032 9.68113 20.8187L15.1496 29.2823L15.2167 29.3863C15.41 29.6867 15.7189 29.9187 16.114 30.0076C16.7918 30.1601 17.4651 29.7556 17.7456 29.1201C18.4669 27.4854 19.4007 25.8841 20.4194 24.3378C21.458 22.7712 22.5962 21.2552 23.8034 19.7921C26.0709 17.0503 28.5767 14.4845 31.2887 12.153C31.5918 11.8921 31.6389 11.4414 31.3918 11.1272Z" fill="white"/>
</svg>
